M48
;GenerationSoftware,Autodesk,EAGLE,9.6.2*%
;CreationDate,2024-11-22T01:26:13Z*%
FMAT,2
ICI,OFF
METRIC,TZ,000.000
T6C0.584
T5C0.813
T4C1.016
T3C1.118
T2C1.200
T1C2.800
%
G90
M71
T1
X3810Y0
X96520Y0
X3810Y76200
X97790Y76200
T2
X6430Y10160
X11430Y10160
X16430Y10160
X87630Y62310
X87630Y67310
X87630Y72310
T3
X34290Y16510
X24130Y16510
T4
X24130Y22860
X73660Y44450
X77470Y15240
X50800Y55880
X12700Y39370
X83820Y43180
X40640Y13970
T5
X50800Y60960
X59690Y29210
X69850Y29210
X43180Y31750
X43180Y21590
X24130Y31750
X34290Y31750
X40640Y64770
X40640Y74930
X87630Y54610
X77470Y54610
X67310Y74930
X57150Y74930
X39370Y53340
X39370Y43180
X57150Y8890
X64770Y44450
X67310Y44450
X53340Y27940
X53340Y17780
X25400Y57150
X35560Y57150
X25400Y38100
X25400Y48260
X77470Y29210
X74930Y29210
X11430Y21590
X59690Y8890
X13970Y21590
X40640Y60960
T6
X48260Y34290
X56134Y34290
X56134Y36830
X56134Y39370
X56134Y41910
X56134Y44450
X48260Y36830
X56134Y49530
X48260Y46990
X48260Y44450
X48260Y41910
X48260Y39370
X48260Y49530
X56134Y46990
M30